name C:\Users\u0101727\Documents\MyRepositories\upper-imu-dc\OpenSim\subject0\MA\train_motion_filt.mot									
datacolumns 10									
datarows 44									
range 15.03 15.46									
endheader 									
time	clav_prot	clav_elev	scapula_abduction	scapula_elevation	scapula_upward_rot	scapula_winging	plane_elv	shoulder_elv	axial_rot
15.03	-39.50616467	9.51096762	-11.35811574	-2.24007555	58.79033488	-11.00758205	8.76397422	75.59616823	7.23431002
15.04	-39.51942188	9.51278863	-11.26730518	-2.24291034	58.92841848	-11.01935438	8.87695585	75.78121992	7.09222284
15.05	-39.53340478	9.51319499	-11.18010392	-2.24657124	59.0629442	-11.03087125	8.99340087	75.96699349	6.94662688
15.06	-39.54831422	9.51264841	-11.09669361	-2.25077752	59.19429158	-11.04237369	9.1134769	76.15330917	6.79852924
15.07	-39.56433676	9.51165218	-11.01722305	-2.25521857	59.32286851	-11.0541052	9.23730972	76.33994308	6.64899775
15.08	-39.58163621	9.51071976	-10.94180345	-2.25957409	59.44908652	-11.06629892	9.36498431	76.52664632	6.49913948
15.09	-39.60034481	9.51034146	-10.87050251	-2.26353543	59.57333637	-11.07916433	9.49654512	76.71316663	6.35007453
15.1	-39.62055514	9.51095239	-10.80333823	-2.26682636	59.6959659	-11.09287467	9.63199618	76.89927044	6.20290681
15.11	-39.64231358	9.51290481	-10.74027317	-2.2692212	59.81726243	-11.10755645	9.77130163	77.08476247	6.05869419
15.12	-39.6656162	9.5164474	-10.68121009	-2.27055841	59.93744138	-11.12328212	9.91438736	77.26950053	5.91842034
15.13	-39.69040796	9.52171372	-10.62599012	-2.27074855	60.0566422	-11.14006679	10.06114448	77.45340343	5.7829706
15.14	-39.71658522	9.52872069	-10.57439362	-2.26977574	60.17493203	-11.15786939	10.21143487	77.63645115	5.6531136
15.15	-39.74400176	9.53737703	-10.52614442	-2.26769277	60.29231632	-11.17659824	10.36509901	77.8186772	5.52948997
15.16	-39.7724777	9.54750008	-10.48091708	-2.26461078	60.40875499	-11.19612016	10.52196566	78.00015445	5.41260817
15.17	-39.80181036	9.55883867	-10.43834669	-2.26068506	60.52418201	-11.21627224	10.68186277	78.18097659	5.30284718
15.18	-39.83178619	9.57109888	-10.39804037	-2.25609884	60.63852609	-11.23687473	10.84462867	78.36123786	5.20046463
15.19	-39.86219253	9.58396971	-10.35958932	-2.2510471	60.75173034	-11.25774386	11.01012244	78.5410139	5.10560873
15.2	-39.8928283	9.597146	-10.32258035	-2.24572208	60.86376914	-11.27870326	11.17823246	78.72034597	5.01833215
15.21	-39.92351289	9.61034663	-10.28660584	-2.24030171	60.97466146	-11.29959317	11.34888237	78.89923029	4.93860597
15.22	-39.95409283	9.62332732	-10.25127144	-2.23494149	61.08448005	-11.32027713	11.52203393	79.07761309	4.86633218
15.23	-39.98444613	9.63588787	-10.21620125	-2.2297698	61.19335681	-11.34064598	11.69768676	79.25539109	4.80135363
15.24	-40.01448448	9.64787475	-10.18104069	-2.22488618	61.30148489	-11.36061949	11.87587512	79.43241656	4.74346086
15.25	-40.04415368	9.65918022	-10.14545732	-2.22036184	61.4091179	-11.38014621	12.05666258	79.60850534	4.69239584
15.26	-40.07343252	9.66973898	-10.10914064	-2.21624156	61.51656675	-11.39920189	12.24013494	79.78344678	4.64785287
15.27	-40.10233066	9.67952359	-10.07180155	-2.21254649	61.62419396	-11.41778704	12.42639257	79.95701425	4.6094775
15.28	-40.13088549	9.68853899	-10.03317224	-2.20927739	61.7324053	-11.43592372	12.61554253	80.12897574	4.57686425
15.29	-40.1591582	9.69681655	-9.99300714	-2.20641814	61.84163829	-11.45365184	12.80769102	80.29910415	4.54955424
15.3	-40.18722906	9.70440751	-9.95108506	-2.20393969	61.9523473	-11.47102487	13.00293624	80.46718748	4.52703371
15.31	-40.21519179	9.71137579	-9.90721247	-2.20180436	62.06498542	-11.48810501	13.20136174	80.63303889	4.50873422
15.32	-40.24314727	9.71779029	-9.86122744	-2.19997044	62.17998371	-11.50495793	13.40302984	80.79650653	4.49403561
15.33	-40.27119668	9.72371725	-9.81300376	-2.19839693	62.2977293	-11.52164725	13.60797523	80.95748288	4.48227213
15.34	-40.29943453	9.72921311	-9.7624546	-2.19704778	62.41854389	-11.53822925	13.81619862	81.11591284	4.47274229
15.35	-40.32794194	9.73431902	-9.70953525	-2.19589537	62.54266474	-11.55474817	14.02766071	81.27179973	4.46472258
15.36	-40.35678081	9.73905755	-9.65424455	-2.19492248	62.67022976	-11.57123267	14.242277	81.4252085	4.45748489
15.37	-40.38598933	9.7434322	-9.5966249	-2.19412256	62.80126817	-11.58769369	14.45991404	81.57626562	4.45031702
15.38	-40.41557899	9.74742961	-9.53676085	-2.19349843	62.93569715	-11.60412393	14.68038788	81.72515564	4.44254535
15.39	-40.44553354	9.75102408	-9.47477651	-2.19305949	63.07332465	-11.62049885	14.90346533	81.87211477	4.43355817
15.4	-40.47580973	9.75418332	-9.4108319	-2.1928183	63.21385757	-11.63677901	15.12886827	82.01742215	4.42282799
15.41	-40.50633969	9.75687454	-9.34511833	-2.192787	63.35691461	-11.65291323	15.35628112	82.16138951	4.40993126
15.42	-40.53703486	9.75906962	-9.27785316	-2.19297435	63.50204258	-11.66884235	15.58536094	82.30435	4.39456376
15.43	-40.567791	9.76074882	-9.20927366	-2.19338389	63.64873538	-11.68450306	15.81574942	82.44664655	4.37655073
15.44	-40.59849406	9.76190251	-9.13963013	-2.19401327	63.79645486	-11.69983156	16.04708572	82.58862016	4.35585104
15.45	-40.62902649	9.76253092	-9.06917821	-2.19485492	63.94465278	-11.71476686	16.27901906	82.73059825	4.33255541
15.46	-40.65927363	9.76264246	-8.99817046	-2.19589754	64.09279329	-11.72925361	16.51121989	82.87288332	4.30687906
